<svg width="214" height="211" viewBox="0 0 214 211" fill="none" xmlns="http://www.w3.org/2000/svg">
<rect width="214" height="211" fill="#F5F5F5"/>
<g filter="url(#filter0_d_0_1)">
<path d="M103.686 192.012C103.206 194.015 102.33 195.698 101.057 197.062C99.7595 198.441 98.2274 199.384 96.4604 199.892C94.6693 200.415 92.8005 200.446 90.854 199.987C88.5766 199.449 86.7213 198.394 85.2881 196.823C83.8549 195.252 83.0448 193.355 82.8577 191.133L87.5585 192.242C87.7925 193.325 88.2795 194.211 89.0194 194.899C89.7399 195.583 90.6548 196.056 91.7643 196.318C92.9517 196.598 94.0801 196.566 95.1497 196.223C96.1951 195.894 97.1017 195.286 97.8697 194.399C98.6183 193.507 99.1557 192.38 99.482 191.019C99.8037 189.677 99.8351 188.431 99.5761 187.281C99.2929 186.145 98.7616 185.188 97.9819 184.408C97.1781 183.642 96.1825 183.12 94.9952 182.839C93.8857 182.577 92.8542 182.591 91.9006 182.879C90.9229 183.183 90.084 183.766 89.3837 184.628L84.6829 183.518C85.863 181.598 87.4494 180.257 89.4421 179.494C91.4106 178.746 93.5433 178.644 95.8401 179.186C97.7866 179.645 99.4433 180.499 100.81 181.746C102.153 183.008 103.093 184.535 103.63 186.327C104.148 188.113 104.167 190.008 103.686 192.012Z" fill="#F94892"/>
</g>
<g filter="url(#filter1_d_0_1)">
<path d="M66.1056 193.596L74.9115 173.218L78.7758 174.863L69.9699 195.242L66.1056 193.596Z" fill="#F94892"/>
</g>
<g filter="url(#filter2_d_0_1)">
<path d="M55.4717 184.272C56.107 184.651 56.5201 185.166 56.7109 185.816C56.8742 186.472 56.7744 187.1 56.4116 187.699C56.0488 188.297 55.5422 188.67 54.8917 188.817C54.2136 188.972 53.557 188.859 52.9217 188.479C52.2864 188.1 51.8871 187.582 51.7238 186.925C51.533 186.275 51.619 185.651 51.9818 185.052C52.3446 184.454 52.865 184.077 53.543 183.923C54.1935 183.776 54.8364 183.892 55.4717 184.272ZM54.7208 181.517L63.3349 167.303L66.9406 169.457L58.3265 183.671L54.7208 181.517Z" fill="#F94892"/>
</g>
<g filter="url(#filter3_d_0_1)">
<path d="M50.795 168.962C49.6077 170.206 48.3172 171.052 46.9237 171.498C45.5164 171.959 44.1194 172.018 42.7329 171.675C41.3326 171.346 40.0496 170.634 38.8841 169.538C37.3834 168.127 36.504 166.586 36.2457 164.915C35.9591 163.246 36.2903 161.581 37.2392 159.92L40.5392 163.023C40.217 163.708 40.1291 164.394 40.2754 165.081C40.3935 165.769 40.7584 166.4 41.3703 166.976C42.2445 167.798 43.2403 168.13 44.3577 167.973C45.4613 167.83 46.5654 167.18 47.6699 166.023C48.7606 164.88 49.3547 163.75 49.4523 162.634C49.536 161.532 49.1408 160.57 48.2666 159.748C47.0282 158.583 45.695 158.373 44.2669 159.116L40.9669 156.013C42.5446 155.026 44.1946 154.614 45.9171 154.779C47.6395 154.944 49.2438 155.725 50.7299 157.123C51.8955 158.219 52.6883 159.445 53.1084 160.801C53.5146 162.171 53.5309 163.559 53.1573 164.965C52.7698 166.385 51.9824 167.717 50.795 168.962Z" fill="#F94892"/>
</g>
<g filter="url(#filter4_d_0_1)">
<path d="M37.4473 141.359L34.7548 149.97L40.6281 146.017L42.9968 149.485L24.5804 161.881L22.2117 158.413L32.6891 151.36L23.6937 150.689L20.6145 146.18L31.6613 147.568L34.368 136.85L37.4473 141.359Z" fill="#F94892"/>
</g>
<g filter="url(#filter5_d_0_1)">
<path d="M10.4398 112.77C10.2345 111.526 10.3284 110.376 10.7215 109.32C11.0948 108.266 11.7705 107.386 12.7484 106.68C13.7034 105.957 14.9212 105.475 16.4017 105.234L26.0251 103.668L26.7094 107.812L17.6486 109.286C16.3457 109.498 15.4026 109.986 14.8192 110.75C14.2161 111.517 14.0074 112.462 14.1932 113.587C14.3822 114.732 14.8874 115.582 15.7088 116.137C16.5073 116.676 17.5579 116.839 18.8608 116.627L27.9215 115.152L28.6058 119.296L6.69415 122.862L6.00987 118.718L13.5605 117.49C12.7619 117.072 12.0918 116.452 11.5504 115.628C10.9892 114.808 10.619 113.855 10.4398 112.77Z" fill="#F94892"/>
</g>
<g filter="url(#filter6_d_0_1)">
<path d="M18.1666 85.427C18.7657 85.4593 19.3028 85.5282 19.7777 85.6339L19.1152 97.7658C20.3189 97.7305 21.2804 97.3616 21.9998 96.6593C22.7192 95.9569 23.1083 95.0666 23.1672 93.9882C23.2523 92.4305 22.6438 91.2861 21.3417 90.5551L21.5887 86.0318C23.1602 86.5971 24.4282 87.5867 25.3925 89.0006C26.3369 90.4134 26.7551 92.1083 26.6471 94.0854C26.5598 95.683 26.1318 97.102 25.363 98.3425C24.5754 99.5619 23.5128 100.496 22.1755 101.145C20.8392 101.774 19.3222 102.043 17.6247 101.952C15.9072 101.859 14.4185 101.429 13.1585 100.66C11.8986 99.891 10.9534 98.8587 10.3232 97.563C9.69289 96.2672 9.42246 94.8006 9.51189 93.163C9.59805 91.5854 10.0144 90.1957 10.7611 88.9941C11.5088 87.7725 12.5303 86.8561 13.8256 86.2449C15.1019 85.6126 16.549 85.3399 18.1666 85.427ZM16.7311 89.706C15.6516 89.668 14.7716 90.0112 14.0911 90.7356C13.3906 91.459 13.0103 92.3699 12.9504 93.4683C12.8936 94.5067 13.1652 95.4026 13.765 96.1559C14.3459 96.8882 15.1912 97.3643 16.3009 97.5843L16.7311 89.706Z" fill="#F94892"/>
</g>
<g filter="url(#filter7_d_0_1)">
<path d="M15.7438 73.0091C15.0408 72.2552 14.5642 71.3977 14.3138 70.4366C14.0688 69.4563 14.0971 68.4268 14.3987 67.3482L18.6502 68.5201L18.3512 69.5891C17.9957 70.8603 18.0252 71.9057 18.4398 72.7253C18.8597 73.5257 19.812 74.1305 21.2967 74.5398L29.279 76.7401L28.1478 80.7849L12.1253 76.3683L13.2565 72.3235L15.7438 73.0091Z" fill="#F94892"/>
</g>
<g filter="url(#filter8_d_0_1)">
<path d="M31.0756 48.9581C31.6066 49.2375 32.0656 49.5243 32.4527 49.8185L26.7293 60.536C27.8383 61.0067 28.868 61.0741 29.8183 60.738C30.7686 60.402 31.4981 59.7576 32.0069 58.805C32.7417 57.4289 32.6717 56.1377 31.7968 54.9314L33.9307 50.9355C35.1205 52.1041 35.8552 53.5304 36.1348 55.2145C36.3968 56.8892 36.0615 58.5999 35.1288 60.3465C34.3751 61.7578 33.387 62.865 32.1646 63.6681C30.934 64.4442 29.5739 64.847 28.0843 64.8767C26.6042 64.8886 25.112 64.4987 23.6076 63.7069C22.0856 62.9058 20.9143 61.8937 20.0936 60.6708C19.273 59.4478 18.8497 58.1176 18.8238 56.6801C18.7979 55.2426 19.1712 53.8005 19.9438 52.3539C20.688 50.9602 21.6531 49.8748 22.8389 49.0977C24.0342 48.303 25.3495 47.8991 26.7848 47.8861C28.2118 47.8462 29.6421 48.2035 31.0756 48.9581ZM27.9647 52.2363C26.9995 51.7509 26.0548 51.6944 25.1305 52.0667C24.1884 52.4297 23.4583 53.0963 22.9402 54.0666C22.4503 54.984 22.3189 55.9093 22.5461 56.8425C22.765 57.7488 23.3323 58.5333 24.248 59.1961L27.9647 52.2363Z" fill="#F94892"/>
</g>
<g filter="url(#filter9_d_0_1)">
<path d="M50.9986 22.1917L55.8865 28.5753C56.2269 29.0199 56.5799 29.2671 56.9455 29.3169C57.3149 29.3388 57.7551 29.157 58.2659 28.7714L59.8224 27.5968L61.9745 30.4074L59.8673 31.9978C57.0417 34.1303 54.5832 33.8309 52.4919 31.0996L47.6222 24.7398L46.0418 25.9326L43.9444 23.1934L45.5248 22.0006L43.0261 18.7374L46.4025 16.1892L48.9011 19.4525L51.8704 17.2115L53.9679 19.9508L50.9986 22.1917Z" fill="#F94892"/>
</g>
<g filter="url(#filter10_d_0_1)">
<path d="M73.0047 24.8065C71.5507 25.4743 70.0943 25.7581 68.6355 25.6579C67.1682 25.5395 65.8237 25.0456 64.6022 24.1762C63.3988 23.2984 62.438 22.089 61.72 20.5481C61.0019 19.0072 60.7045 17.4931 60.8279 16.0059C60.9694 14.5104 61.483 13.1741 62.3686 11.997C63.2459 10.8017 64.4115 9.87021 65.8654 9.20239C67.3194 8.53456 68.7891 8.25565 70.2746 8.36566C71.7516 8.45754 73.1009 8.93821 74.3225 9.80768C75.5622 10.6688 76.5411 11.8698 77.2592 13.4107C77.9773 14.9516 78.2564 16.474 78.0967 17.9779C77.9552 19.4735 77.4368 20.823 76.5414 22.0266C75.6557 23.2037 74.4768 24.1303 73.0047 24.8065ZM71.4587 21.489C72.1493 21.1718 72.7185 20.7123 73.1662 20.1105C73.6236 19.4823 73.8778 18.7493 73.9287 17.9116C73.9796 17.0739 73.7812 16.1746 73.3335 15.2138C72.6661 13.7817 71.7733 12.8602 70.6552 12.4495C69.5468 12.0122 68.4473 12.044 67.3569 12.5449C66.2664 13.0458 65.5302 13.8571 65.1483 14.9789C64.7761 16.0742 64.9237 17.3379 65.5911 18.77C66.2585 20.2021 67.1282 21.1452 68.2003 21.5991C69.2821 22.0266 70.3682 21.9899 71.4587 21.489Z" fill="#F94892"/>
</g>
<g filter="url(#filter11_d_0_1)">
<path d="M107.756 18.27C106.396 18.27 105.176 18.03 104.096 17.55C103.016 17.05 102.156 16.38 101.516 15.54C100.896 14.7 100.556 13.77 100.496 12.75L104.726 12.75C104.806 13.39 105.116 13.92 105.656 14.34C106.216 14.76 106.906 14.97 107.726 14.97C108.526 14.97 109.146 14.81 109.586 14.49C110.046 14.17 110.276 13.76 110.276 13.26C110.276 12.72 109.996 12.32 109.436 12.06C108.896 11.78 108.026 11.48 106.826 11.16C105.586 10.86 104.566 10.55 103.766 10.23C102.986 9.91 102.306 9.42 101.726 8.76C101.166 8.1 100.886 7.21 100.886 6.09C100.886 5.17 101.146 4.33 101.666 3.57C102.206 2.81 102.966 2.21 103.946 1.77C104.946 1.33 106.116 1.11 107.456 1.11C109.436 1.11 111.016 1.61 112.196 2.61C113.376 3.59 114.026 4.92 114.146 6.6L110.126 6.6C110.066 5.94 109.786 5.42 109.286 5.04C108.806 4.64 108.156 4.44 107.336 4.44C106.576 4.44 105.986 4.58 105.566 4.86C105.166 5.14 104.966 5.53 104.966 6.03C104.966 6.59 105.246 7.02 105.806 7.32C106.366 7.6 107.236 7.89 108.416 8.19C109.616 8.49 110.606 8.8 111.386 9.12C112.166 9.44 112.836 9.94 113.396 10.62C113.976 11.28 114.276 12.16 114.296 13.26C114.296 14.22 114.026 15.08 113.486 15.84C112.966 16.6 112.206 17.2 111.206 17.64C110.226 18.06 109.076 18.27 107.756 18.27Z" fill="#F94892"/>
</g>
<g filter="url(#filter12_d_0_1)">
<path d="M135.077 12.1995C134.947 12.7853 134.791 13.3039 134.609 13.7555L122.739 11.1615C122.577 12.3544 122.784 13.3618 123.359 14.1837C123.935 15.0055 124.751 15.5318 125.806 15.7623C127.33 16.0954 128.559 15.6782 129.494 14.5109L133.92 15.478C133.104 16.9376 131.92 18.0299 130.366 18.7549C128.817 19.4604 127.075 19.6018 125.14 19.179C123.577 18.8375 122.246 18.1883 121.147 17.2317C120.072 16.2597 119.324 15.0623 118.902 13.6394C118.499 12.2208 118.482 10.6816 118.85 9.02194C119.222 7.34272 119.891 5.94324 120.856 4.8235C121.821 3.70377 122.995 2.9367 124.378 2.52229C125.76 2.10789 127.253 2.07575 128.855 2.42588C130.398 2.76319 131.702 3.39616 132.766 4.32476C133.85 5.25764 134.588 6.41173 134.979 7.78703C135.395 9.14708 135.427 10.6179 135.077 12.1995ZM131.087 10.0993C131.301 9.04059 131.106 8.11772 130.502 7.33063C129.902 6.52403 129.065 6.0033 127.991 5.76846C126.975 5.54643 126.046 5.67097 125.204 6.14209C124.386 6.59794 123.777 7.35551 123.379 8.4148L131.087 10.0993Z" fill="#F94892"/>
</g>
<g filter="url(#filter13_d_0_1)">
<path d="M153.13 20.1036C152.877 20.6475 152.612 21.1202 152.337 21.5219L141.296 16.4506C140.88 17.58 140.865 18.6074 141.25 19.5326C141.635 20.4578 142.318 21.1458 143.3 21.5966C144.717 22.2478 146.009 22.1038 147.175 21.1646L151.291 23.0554C150.179 24.3053 148.786 25.1178 147.111 25.4928C145.444 25.8497 143.711 25.6149 141.912 24.7885C140.458 24.1207 139.297 23.2024 138.429 22.0336C137.589 20.8551 137.116 19.5264 137.01 18.0476C136.923 16.577 137.239 15.0713 137.957 13.5304C138.683 11.9714 139.639 10.7488 140.825 9.86266C142.01 8.9765 143.323 8.47913 144.763 8.37055C146.204 8.26198 147.67 8.54995 149.16 9.23447C150.596 9.89395 151.733 10.7907 152.573 11.9246C153.431 13.0669 153.902 14.3509 153.988 15.7768C154.101 17.193 153.815 18.6352 153.13 20.1036ZM149.684 17.2003C150.122 16.213 150.131 15.2707 149.711 14.3734C149.299 13.4579 148.593 12.7706 147.594 12.3115C146.649 11.8774 145.714 11.8002 144.789 12.0797C143.891 12.3496 143.133 12.9587 142.514 13.907L149.684 17.2003Z" fill="#F94892"/>
</g>
<g filter="url(#filter14_d_0_1)">
<path d="M187.806 40.449C189.133 41.9991 189.717 43.6514 189.56 45.4058C189.431 47.1626 188.511 48.763 186.798 50.2071L179.345 56.4926L176.614 53.3012L183.632 47.3832C184.626 46.5451 185.168 45.6562 185.259 44.7163C185.365 43.7635 185.048 42.854 184.306 41.9878C183.565 41.1216 182.706 40.6558 181.729 40.5903C180.78 40.5272 179.809 40.9147 178.815 41.7527L171.797 47.6708L169.067 44.4794L176.084 38.5614C177.078 37.7233 177.621 36.8344 177.711 35.8945C177.817 34.9417 177.5 34.0322 176.759 33.166C176.005 32.2846 175.139 31.8112 174.162 31.7457C173.213 31.6826 172.241 32.0701 171.248 32.9081L164.23 38.8262L161.499 35.6348L174.205 24.9205L176.935 28.1118L175.399 29.4076C176.285 29.3667 177.154 29.5364 178.006 29.9168C178.871 30.3124 179.635 30.8977 180.298 31.6728C181.143 32.6606 181.683 33.7225 181.918 34.8585C182.168 35.9817 182.086 37.0848 181.67 38.1679C182.755 37.9593 183.851 38.0556 184.957 38.4568C186.077 38.8731 187.026 39.5372 187.806 40.449Z" fill="#F94892"/>
</g>
<g filter="url(#filter15_d_0_1)">
<path d="M199.807 62.9944L173.297 65.3195L171.191 61.3765L180.214 60.6955L191.412 47.2753L193.631 51.43L185.378 60.6218L197.701 59.0514L199.807 62.9944Z" fill="#F94892"/>
</g>
<g filter="url(#filter16_d_0_1)">
<path d="M188.76 97.3987L196.656 92.347L196.548 90.3699L188.4 90.8085L188.171 86.6148L209.081 85.4892L209.509 93.3375C209.598 94.9551 209.383 96.3487 208.866 97.5181C208.369 98.6866 207.647 99.5767 206.699 100.189C205.772 100.819 204.709 101.167 203.511 101.231C202.133 101.306 200.863 100.973 199.701 100.235C198.559 99.495 197.735 98.3477 197.229 96.7926L189.025 102.251L188.76 97.3987ZM199.694 90.2006L199.885 93.7054C199.947 94.8437 200.263 95.6779 200.833 96.208C201.423 96.7371 202.207 96.9753 203.185 96.9226C204.144 96.871 204.868 96.5517 205.356 95.9646C205.865 95.3764 206.088 94.5131 206.026 93.3748L205.835 89.87L199.694 90.2006Z" fill="#F94892"/>
</g>
<g filter="url(#filter17_d_0_1)">
<path d="M194.839 121.098C194.247 121.002 193.721 120.876 193.26 120.72L195.24 108.732C194.039 108.638 193.043 108.901 192.251 109.522C191.459 110.143 190.975 110.986 190.799 112.052C190.545 113.591 191.026 114.794 192.241 115.66L191.503 120.13C190.002 119.399 188.849 118.279 188.044 116.771C187.259 115.265 187.027 113.535 187.35 111.582C187.611 110.003 188.191 108.639 189.09 107.488C190.006 106.361 191.164 105.546 192.565 105.045C193.962 104.563 195.499 104.458 197.177 104.732C198.875 105.008 200.308 105.596 201.477 106.495C202.646 107.395 203.474 108.522 203.959 109.878C204.445 111.233 204.554 112.72 204.287 114.338C204.03 115.897 203.464 117.234 202.591 118.348C201.715 119.482 200.599 120.283 199.245 120.752C197.907 121.243 196.438 121.359 194.839 121.098ZM196.733 116.999C197.802 117.153 198.714 116.907 199.47 116.259C200.245 115.616 200.722 114.751 200.901 113.666C201.071 112.64 200.898 111.72 200.384 110.907C199.886 110.117 199.098 109.553 198.018 109.215L196.733 116.999Z" fill="#F94892"/>
</g>
<g filter="url(#filter18_d_0_1)">
<path d="M183.5 128.856C184.006 127.593 184.684 126.55 185.532 125.724C186.4 124.905 187.343 124.354 188.362 124.069C189.374 123.802 190.366 123.829 191.337 124.148L189.761 128.074C189.136 127.913 188.528 128.006 187.936 128.352C187.337 128.718 186.885 129.281 186.58 130.042C186.282 130.784 186.199 131.418 186.333 131.944C186.459 132.489 186.755 132.853 187.22 133.037C187.722 133.236 188.198 133.123 188.649 132.699C189.11 132.301 189.713 131.604 190.458 130.608C191.198 129.567 191.867 128.735 192.462 128.11C193.05 127.504 193.759 127.053 194.589 126.758C195.411 126.481 196.343 126.548 197.385 126.96C198.24 127.299 198.924 127.849 199.437 128.611C199.943 129.392 200.218 130.318 200.262 131.389C200.299 132.479 200.068 133.646 199.568 134.889C198.831 136.727 197.778 138.009 196.408 138.736C195.057 139.471 193.579 139.585 191.972 139.078L193.469 135.348C194.105 135.535 194.693 135.466 195.232 135.142C195.783 134.844 196.211 134.314 196.517 133.553C196.8 132.848 196.889 132.249 196.785 131.756C196.674 131.282 196.386 130.953 195.921 130.769C195.4 130.563 194.896 130.664 194.408 131.074C193.939 131.49 193.346 132.191 192.627 133.176C191.901 134.179 191.244 134.984 190.656 135.59C190.068 136.196 189.354 136.634 188.513 136.904C187.683 137.199 186.753 137.154 185.723 136.768C184.83 136.415 184.131 135.848 183.625 135.067C183.112 134.305 182.837 133.379 182.801 132.289C182.775 131.225 183.008 130.081 183.5 128.856Z" fill="#F94892"/>
</g>
<g filter="url(#filter19_d_0_1)">
<path d="M185.521 160.708L171.733 151.427L174.119 147.934L175.861 149.106C175.568 148.258 175.496 147.354 175.644 146.393C175.797 145.459 176.161 144.571 176.736 143.729C177.47 142.655 178.342 141.856 179.354 141.332C180.383 140.819 181.5 140.619 182.706 140.732C183.918 140.873 185.138 141.356 186.366 142.183L194.454 147.627L192.085 151.095L184.495 145.986C183.4 145.249 182.368 144.952 181.398 145.095C180.445 145.249 179.647 145.797 179.004 146.738C178.35 147.696 178.127 148.643 178.336 149.579C178.561 150.526 179.221 151.368 180.316 152.105L187.906 157.214L185.521 160.708Z" fill="#F94892"/>
</g>
<g filter="url(#filter20_d_0_1)">
<path d="M169.507 181.195C168.133 182.703 166.559 183.494 164.786 183.568C163.015 183.67 161.297 182.973 159.63 181.476L152.378 174.96L155.207 171.856L162.036 177.991C163.003 178.86 163.962 179.278 164.912 179.245C165.877 179.225 166.744 178.793 167.512 177.951C168.28 177.108 168.633 176.202 168.57 175.232C168.509 174.289 167.995 173.384 167.028 172.515L160.199 166.38L163.029 163.276L169.857 169.411C170.824 170.28 171.783 170.698 172.733 170.665C173.699 170.645 174.565 170.213 175.333 169.371C176.115 168.514 176.474 167.6 176.412 166.629C176.351 165.687 175.837 164.782 174.87 163.913L168.041 157.777L170.871 154.674L183.233 165.782L180.404 168.885L178.909 167.542C179.066 168.409 179.01 169.286 178.741 170.175C178.46 171.077 177.975 171.906 177.288 172.66C176.412 173.62 175.422 174.29 174.319 174.67C173.23 175.063 172.117 175.125 170.981 174.857C171.332 175.898 171.379 176.989 171.123 178.131C170.854 179.287 170.315 180.308 169.507 181.195Z" fill="#F94892"/>
</g>
<g filter="url(#filter21_d_0_1)">
<path d="M142.079 191.088C141.778 190.569 141.542 190.082 141.37 189.627L151.916 183.593C151.227 182.605 150.39 182.001 149.407 181.78C148.423 181.559 147.462 181.717 146.525 182.254C145.171 183.028 144.544 184.159 144.644 185.646L140.712 187.895C140.325 186.273 140.461 184.675 141.119 183.1C141.788 181.542 142.981 180.272 144.7 179.289C146.089 178.494 147.514 178.082 148.977 178.051C150.432 178.048 151.798 178.43 153.076 179.197C154.336 179.973 155.393 181.097 156.246 182.567C157.11 184.055 157.564 185.534 157.609 187.006C157.654 188.478 157.305 189.83 156.563 191.061C155.821 192.292 154.738 193.315 153.315 194.129C151.943 194.914 150.549 195.32 149.131 195.348C147.696 195.386 146.367 195.028 145.144 194.276C143.914 193.552 142.893 192.489 142.079 191.088ZM146.457 189.965C147.017 190.889 147.787 191.439 148.768 191.615C149.759 191.809 150.732 191.632 151.687 191.086C152.589 190.57 153.193 189.856 153.496 188.945C153.793 188.061 153.729 187.095 153.306 186.047L146.457 189.965Z" fill="#F94892"/>
</g>
<defs>
<filter id="filter0_d_0_1" x="77.2772" y="176.925" width="32.8988" height="33.5015" filterUnits="userSpaceOnUse" color-interpolation-filters="sRGB">
<feFlood flood-opacity="0" result="BackgroundImageFix"/>
<feColorMatrix in="SourceAlpha" type="matrix" values="0 0 0 0 0 0 0 0 0 0 0 0 0 0 0 0 0 0 127 0" result="hardAlpha"/>
<feOffset dy="4"/>
<feGaussianBlur stdDeviation="2"/>
<feComposite in2="hardAlpha" operator="out"/>
<feColorMatrix type="matrix" values="0 0 0 0 0 0 0 0 0 0 0 0 0 0 0 0 0 0 0.25 0"/>
<feBlend mode="normal" in2="BackgroundImageFix" result="effect1_dropShadow_0_1"/>
<feBlend mode="normal" in="SourceGraphic" in2="effect1_dropShadow_0_1" result="shape"/>
</filter>
<filter id="filter1_d_0_1" x="62.1057" y="173.218" width="20.6701" height="30.0242" filterUnits="userSpaceOnUse" color-interpolation-filters="sRGB">
<feFlood flood-opacity="0" result="BackgroundImageFix"/>
<feColorMatrix in="SourceAlpha" type="matrix" values="0 0 0 0 0 0 0 0 0 0 0 0 0 0 0 0 0 0 127 0" result="hardAlpha"/>
<feOffset dy="4"/>
<feGaussianBlur stdDeviation="2"/>
<feComposite in2="hardAlpha" operator="out"/>
<feColorMatrix type="matrix" values="0 0 0 0 0 0 0 0 0 0 0 0 0 0 0 0 0 0 0.25 0"/>
<feBlend mode="normal" in2="BackgroundImageFix" result="effect1_dropShadow_0_1"/>
<feBlend mode="normal" in="SourceGraphic" in2="effect1_dropShadow_0_1" result="shape"/>
</filter>
<filter id="filter2_d_0_1" x="46.7068" y="167.042" width="24.6201" height="30.7605" filterUnits="userSpaceOnUse" color-interpolation-filters="sRGB">
<feFlood flood-opacity="0" result="BackgroundImageFix"/>
<feColorMatrix in="SourceAlpha" type="matrix" values="0 0 0 0 0 0 0 0 0 0 0 0 0 0 0 0 0 0 127 0" result="hardAlpha"/>
<feOffset dy="4"/>
<feGaussianBlur stdDeviation="2"/>
<feComposite in2="hardAlpha" operator="out"/>
<feColorMatrix type="matrix" values="0 0 0 0 0 0 0 0 0 0 0 0 0 0 0 0 0 0 0.25 0"/>
<feBlend mode="normal" in2="BackgroundImageFix" result="effect1_dropShadow_0_1"/>
<feBlend mode="normal" in="SourceGraphic" in2="effect1_dropShadow_0_1" result="shape"/>
</filter>
<filter id="filter3_d_0_1" x="29.1801" y="151.759" width="31.5379" height="31.4108" filterUnits="userSpaceOnUse" color-interpolation-filters="sRGB">
<feFlood flood-opacity="0" result="BackgroundImageFix"/>
<feColorMatrix in="SourceAlpha" type="matrix" values="0 0 0 0 0 0 0 0 0 0 0 0 0 0 0 0 0 0 127 0" result="hardAlpha"/>
<feOffset dy="4"/>
<feGaussianBlur stdDeviation="2"/>
<feComposite in2="hardAlpha" operator="out"/>
<feColorMatrix type="matrix" values="0 0 0 0 0 0 0 0 0 0 0 0 0 0 0 0 0 0 0.25 0"/>
<feBlend mode="normal" in2="BackgroundImageFix" result="effect1_dropShadow_0_1"/>
<feBlend mode="normal" in="SourceGraphic" in2="effect1_dropShadow_0_1" result="shape"/>
</filter>
<filter id="filter4_d_0_1" x="11.9516" y="136.85" width="35.0451" height="33.0313" filterUnits="userSpaceOnUse" color-interpolation-filters="sRGB">
<feFlood flood-opacity="0" result="BackgroundImageFix"/>
<feColorMatrix in="SourceAlpha" type="matrix" values="0 0 0 0 0 0 0 0 0 0 0 0 0 0 0 0 0 0 127 0" result="hardAlpha"/>
<feOffset dy="4"/>
<feGaussianBlur stdDeviation="2"/>
<feComposite in2="hardAlpha" operator="out"/>
<feColorMatrix type="matrix" values="0 0 0 0 0 0 0 0 0 0 0 0 0 0 0 0 0 0 0.25 0"/>
<feBlend mode="normal" in2="BackgroundImageFix" result="effect1_dropShadow_0_1"/>
<feBlend mode="normal" in="SourceGraphic" in2="effect1_dropShadow_0_1" result="shape"/>
</filter>
<filter id="filter5_d_0_1" x="0.113419" y="103.668" width="32.4924" height="27.1947" filterUnits="userSpaceOnUse" color-interpolation-filters="sRGB">
<feFlood flood-opacity="0" result="BackgroundImageFix"/>
<feColorMatrix in="SourceAlpha" type="matrix" values="0 0 0 0 0 0 0 0 0 0 0 0 0 0 0 0 0 0 127 0" result="hardAlpha"/>
<feOffset dy="4"/>
<feGaussianBlur stdDeviation="2"/>
<feComposite in2="hardAlpha" operator="out"/>
<feColorMatrix type="matrix" values="0 0 0 0 0 0 0 0 0 0 0 0 0 0 0 0 0 0 0.25 0"/>
<feBlend mode="normal" in2="BackgroundImageFix" result="effect1_dropShadow_0_1"/>
<feBlend mode="normal" in="SourceGraphic" in2="effect1_dropShadow_0_1" result="shape"/>
</filter>
<filter id="filter6_d_0_1" x="5.05711" y="84.9852" width="26.0366" height="25.4278" filterUnits="userSpaceOnUse" color-interpolation-filters="sRGB">
<feFlood flood-opacity="0" result="BackgroundImageFix"/>
<feColorMatrix in="SourceAlpha" type="matrix" values="0 0 0 0 0 0 0 0 0 0 0 0 0 0 0 0 0 0 127 0" result="hardAlpha"/>
<feOffset dy="4"/>
<feGaussianBlur stdDeviation="2"/>
<feComposite in2="hardAlpha" operator="out"/>
<feColorMatrix type="matrix" values="0 0 0 0 0 0 0 0 0 0 0 0 0 0 0 0 0 0 0.25 0"/>
<feBlend mode="normal" in2="BackgroundImageFix" result="effect1_dropShadow_0_1"/>
<feBlend mode="normal" in="SourceGraphic" in2="effect1_dropShadow_0_1" result="shape"/>
</filter>
<filter id="filter7_d_0_1" x="7.89395" y="67.3482" width="26.7586" height="21.4367" filterUnits="userSpaceOnUse" color-interpolation-filters="sRGB">
<feFlood flood-opacity="0" result="BackgroundImageFix"/>
<feColorMatrix in="SourceAlpha" type="matrix" values="0 0 0 0 0 0 0 0 0 0 0 0 0 0 0 0 0 0 127 0" result="hardAlpha"/>
<feOffset dy="4"/>
<feGaussianBlur stdDeviation="2"/>
<feComposite in2="hardAlpha" operator="out"/>
<feColorMatrix type="matrix" values="0 0 0 0 0 0 0 0 0 0 0 0 0 0 0 0 0 0 0.25 0"/>
<feBlend mode="normal" in2="BackgroundImageFix" result="effect1_dropShadow_0_1"/>
<feBlend mode="normal" in="SourceGraphic" in2="effect1_dropShadow_0_1" result="shape"/>
</filter>
<filter id="filter8_d_0_1" x="12.0151" y="45.1295" width="30.9716" height="30.5737" filterUnits="userSpaceOnUse" color-interpolation-filters="sRGB">
<feFlood flood-opacity="0" result="BackgroundImageFix"/>
<feColorMatrix in="SourceAlpha" type="matrix" values="0 0 0 0 0 0 0 0 0 0 0 0 0 0 0 0 0 0 127 0" result="hardAlpha"/>
<feOffset dy="4"/>
<feGaussianBlur stdDeviation="2"/>
<feComposite in2="hardAlpha" operator="out"/>
<feColorMatrix type="matrix" values="0 0 0 0 0 0 0 0 0 0 0 0 0 0 0 0 0 0 0.25 0"/>
<feBlend mode="normal" in2="BackgroundImageFix" result="effect1_dropShadow_0_1"/>
<feBlend mode="normal" in="SourceGraphic" in2="effect1_dropShadow_0_1" result="shape"/>
</filter>
<filter id="filter9_d_0_1" x="37.4457" y="13.9483" width="28.5288" height="30.4409" filterUnits="userSpaceOnUse" color-interpolation-filters="sRGB">
<feFlood flood-opacity="0" result="BackgroundImageFix"/>
<feColorMatrix in="SourceAlpha" type="matrix" values="0 0 0 0 0 0 0 0 0 0 0 0 0 0 0 0 0 0 127 0" result="hardAlpha"/>
<feOffset dy="4"/>
<feGaussianBlur stdDeviation="2"/>
<feComposite in2="hardAlpha" operator="out"/>
<feColorMatrix type="matrix" values="0 0 0 0 0 0 0 0 0 0 0 0 0 0 0 0 0 0 0.25 0"/>
<feBlend mode="normal" in2="BackgroundImageFix" result="effect1_dropShadow_0_1"/>
<feBlend mode="normal" in="SourceGraphic" in2="effect1_dropShadow_0_1" result="shape"/>
</filter>
<filter id="filter10_d_0_1" x="54.0958" y="5.6337" width="30.7875" height="30.6914" filterUnits="userSpaceOnUse" color-interpolation-filters="sRGB">
<feFlood flood-opacity="0" result="BackgroundImageFix"/>
<feColorMatrix in="SourceAlpha" type="matrix" values="0 0 0 0 0 0 0 0 0 0 0 0 0 0 0 0 0 0 127 0" result="hardAlpha"/>
<feOffset dy="4"/>
<feGaussianBlur stdDeviation="2"/>
<feComposite in2="hardAlpha" operator="out"/>
<feColorMatrix type="matrix" values="0 0 0 0 0 0 0 0 0 0 0 0 0 0 0 0 0 0 0.25 0"/>
<feBlend mode="normal" in2="BackgroundImageFix" result="effect1_dropShadow_0_1"/>
<feBlend mode="normal" in="SourceGraphic" in2="effect1_dropShadow_0_1" result="shape"/>
</filter>
<filter id="filter11_d_0_1" x="96.4962" y="1.10999" width="21.8" height="25.16" filterUnits="userSpaceOnUse" color-interpolation-filters="sRGB">
<feFlood flood-opacity="0" result="BackgroundImageFix"/>
<feColorMatrix in="SourceAlpha" type="matrix" values="0 0 0 0 0 0 0 0 0 0 0 0 0 0 0 0 0 0 127 0" result="hardAlpha"/>
<feOffset dy="4"/>
<feGaussianBlur stdDeviation="2"/>
<feComposite in2="hardAlpha" operator="out"/>
<feColorMatrix type="matrix" values="0 0 0 0 0 0 0 0 0 0 0 0 0 0 0 0 0 0 0.25 0"/>
<feBlend mode="normal" in2="BackgroundImageFix" result="effect1_dropShadow_0_1"/>
<feBlend mode="normal" in="SourceGraphic" in2="effect1_dropShadow_0_1" result="shape"/>
</filter>
<filter id="filter12_d_0_1" x="112.993" y="0.645355" width="27.8633" height="28.2822" filterUnits="userSpaceOnUse" color-interpolation-filters="sRGB">
<feFlood flood-opacity="0" result="BackgroundImageFix"/>
<feColorMatrix in="SourceAlpha" type="matrix" values="0 0 0 0 0 0 0 0 0 0 0 0 0 0 0 0 0 0 127 0" result="hardAlpha"/>
<feOffset dy="4"/>
<feGaussianBlur stdDeviation="2"/>
<feComposite in2="hardAlpha" operator="out"/>
<feColorMatrix type="matrix" values="0 0 0 0 0 0 0 0 0 0 0 0 0 0 0 0 0 0 0.25 0"/>
<feBlend mode="normal" in2="BackgroundImageFix" result="effect1_dropShadow_0_1"/>
<feBlend mode="normal" in="SourceGraphic" in2="effect1_dropShadow_0_1" result="shape"/>
</filter>
<filter id="filter13_d_0_1" x="130.333" y="5.75342" width="30.2696" height="30.4535" filterUnits="userSpaceOnUse" color-interpolation-filters="sRGB">
<feFlood flood-opacity="0" result="BackgroundImageFix"/>
<feColorMatrix in="SourceAlpha" type="matrix" values="0 0 0 0 0 0 0 0 0 0 0 0 0 0 0 0 0 0 127 0" result="hardAlpha"/>
<feOffset dy="4"/>
<feGaussianBlur stdDeviation="2"/>
<feComposite in2="hardAlpha" operator="out"/>
<feColorMatrix type="matrix" values="0 0 0 0 0 0 0 0 0 0 0 0 0 0 0 0 0 0 0.25 0"/>
<feBlend mode="normal" in2="BackgroundImageFix" result="effect1_dropShadow_0_1"/>
<feBlend mode="normal" in="SourceGraphic" in2="effect1_dropShadow_0_1" result="shape"/>
</filter>
<filter id="filter14_d_0_1" x="157.499" y="24.7658" width="38.7343" height="39.7268" filterUnits="userSpaceOnUse" color-interpolation-filters="sRGB">
<feFlood flood-opacity="0" result="BackgroundImageFix"/>
<feColorMatrix in="SourceAlpha" type="matrix" values="0 0 0 0 0 0 0 0 0 0 0 0 0 0 0 0 0 0 127 0" result="hardAlpha"/>
<feOffset dy="4"/>
<feGaussianBlur stdDeviation="2"/>
<feComposite in2="hardAlpha" operator="out"/>
<feColorMatrix type="matrix" values="0 0 0 0 0 0 0 0 0 0 0 0 0 0 0 0 0 0 0.25 0"/>
<feBlend mode="normal" in2="BackgroundImageFix" result="effect1_dropShadow_0_1"/>
<feBlend mode="normal" in="SourceGraphic" in2="effect1_dropShadow_0_1" result="shape"/>
</filter>
<filter id="filter15_d_0_1" x="165.75" y="47.2753" width="38.0568" height="35.121" filterUnits="userSpaceOnUse" color-interpolation-filters="sRGB">
<feFlood flood-opacity="0" result="BackgroundImageFix"/>
<feColorMatrix in="SourceAlpha" type="matrix" values="0 0 0 0 0 0 0 0 0 0 0 0 0 0 0 0 0 0 127 0" result="hardAlpha"/>
<feOffset dy="4"/>
<feGaussianBlur stdDeviation="2"/>
<feComposite in2="hardAlpha" operator="out"/>
<feColorMatrix type="matrix" values="0 0 0 0 0 0 0 0 0 0 0 0 0 0 0 0 0 0 0.25 0"/>
<feBlend mode="normal" in2="BackgroundImageFix" result="effect1_dropShadow_0_1"/>
<feBlend mode="normal" in="SourceGraphic" in2="effect1_dropShadow_0_1" result="shape"/>
</filter>
<filter id="filter16_d_0_1" x="184.171" y="85.4892" width="29.7637" height="24.7622" filterUnits="userSpaceOnUse" color-interpolation-filters="sRGB">
<feFlood flood-opacity="0" result="BackgroundImageFix"/>
<feColorMatrix in="SourceAlpha" type="matrix" values="0 0 0 0 0 0 0 0 0 0 0 0 0 0 0 0 0 0 127 0" result="hardAlpha"/>
<feOffset dy="4"/>
<feGaussianBlur stdDeviation="2"/>
<feComposite in2="hardAlpha" operator="out"/>
<feColorMatrix type="matrix" values="0 0 0 0 0 0 0 0 0 0 0 0 0 0 0 0 0 0 0.25 0"/>
<feBlend mode="normal" in2="BackgroundImageFix" result="effect1_dropShadow_0_1"/>
<feBlend mode="normal" in="SourceGraphic" in2="effect1_dropShadow_0_1" result="shape"/>
</filter>
<filter id="filter17_d_0_1" x="182.016" y="103.353" width="27.6303" height="27.0658" filterUnits="userSpaceOnUse" color-interpolation-filters="sRGB">
<feFlood flood-opacity="0" result="BackgroundImageFix"/>
<feColorMatrix in="SourceAlpha" type="matrix" values="0 0 0 0 0 0 0 0 0 0 0 0 0 0 0 0 0 0 127 0" result="hardAlpha"/>
<feOffset dy="4"/>
<feGaussianBlur stdDeviation="2"/>
<feComposite in2="hardAlpha" operator="out"/>
<feColorMatrix type="matrix" values="0 0 0 0 0 0 0 0 0 0 0 0 0 0 0 0 0 0 0.25 0"/>
<feBlend mode="normal" in2="BackgroundImageFix" result="effect1_dropShadow_0_1"/>
<feBlend mode="normal" in="SourceGraphic" in2="effect1_dropShadow_0_1" result="shape"/>
</filter>
<filter id="filter18_d_0_1" x="177.064" y="122.118" width="29.0968" height="27.1191" filterUnits="userSpaceOnUse" color-interpolation-filters="sRGB">
<feFlood flood-opacity="0" result="BackgroundImageFix"/>
<feColorMatrix in="SourceAlpha" type="matrix" values="0 0 0 0 0 0 0 0 0 0 0 0 0 0 0 0 0 0 127 0" result="hardAlpha"/>
<feOffset dy="4"/>
<feGaussianBlur stdDeviation="2"/>
<feComposite in2="hardAlpha" operator="out"/>
<feColorMatrix type="matrix" values="0 0 0 0 0 0 0 0 0 0 0 0 0 0 0 0 0 0 0.25 0"/>
<feBlend mode="normal" in2="BackgroundImageFix" result="effect1_dropShadow_0_1"/>
<feBlend mode="normal" in="SourceGraphic" in2="effect1_dropShadow_0_1" result="shape"/>
</filter>
<filter id="filter19_d_0_1" x="167.559" y="138.229" width="30.8949" height="30.4786" filterUnits="userSpaceOnUse" color-interpolation-filters="sRGB">
<feFlood flood-opacity="0" result="BackgroundImageFix"/>
<feColorMatrix in="SourceAlpha" type="matrix" values="0 0 0 0 0 0 0 0 0 0 0 0 0 0 0 0 0 0 127 0" result="hardAlpha"/>
<feOffset dy="4"/>
<feGaussianBlur stdDeviation="2"/>
<feComposite in2="hardAlpha" operator="out"/>
<feColorMatrix type="matrix" values="0 0 0 0 0 0 0 0 0 0 0 0 0 0 0 0 0 0 0.25 0"/>
<feBlend mode="normal" in2="BackgroundImageFix" result="effect1_dropShadow_0_1"/>
<feBlend mode="normal" in="SourceGraphic" in2="effect1_dropShadow_0_1" result="shape"/>
</filter>
<filter id="filter20_d_0_1" x="148.378" y="154.674" width="39.0339" height="39.5544" filterUnits="userSpaceOnUse" color-interpolation-filters="sRGB">
<feFlood flood-opacity="0" result="BackgroundImageFix"/>
<feColorMatrix in="SourceAlpha" type="matrix" values="0 0 0 0 0 0 0 0 0 0 0 0 0 0 0 0 0 0 127 0" result="hardAlpha"/>
<feOffset dy="4"/>
<feGaussianBlur stdDeviation="2"/>
<feComposite in2="hardAlpha" operator="out"/>
<feColorMatrix type="matrix" values="0 0 0 0 0 0 0 0 0 0 0 0 0 0 0 0 0 0 0.25 0"/>
<feBlend mode="normal" in2="BackgroundImageFix" result="effect1_dropShadow_0_1"/>
<feBlend mode="normal" in="SourceGraphic" in2="effect1_dropShadow_0_1" result="shape"/>
</filter>
<filter id="filter21_d_0_1" x="133.591" y="175.147" width="30.9623" height="31.0499" filterUnits="userSpaceOnUse" color-interpolation-filters="sRGB">
<feFlood flood-opacity="0" result="BackgroundImageFix"/>
<feColorMatrix in="SourceAlpha" type="matrix" values="0 0 0 0 0 0 0 0 0 0 0 0 0 0 0 0 0 0 127 0" result="hardAlpha"/>
<feOffset dy="4"/>
<feGaussianBlur stdDeviation="2"/>
<feComposite in2="hardAlpha" operator="out"/>
<feColorMatrix type="matrix" values="0 0 0 0 0 0 0 0 0 0 0 0 0 0 0 0 0 0 0.25 0"/>
<feBlend mode="normal" in2="BackgroundImageFix" result="effect1_dropShadow_0_1"/>
<feBlend mode="normal" in="SourceGraphic" in2="effect1_dropShadow_0_1" result="shape"/>
</filter>
</defs>
</svg>
